<?xml version="1.0" encoding="utf-8"?>
<!-- Generator: Adobe Illustrator 18.1.0, SVG Export Plug-In . SVG Version: 6.00 Build 0)  -->
<!DOCTYPE svg PUBLIC "-//W3C//DTD SVG 1.1//EN" "http://www.w3.org/Graphics/SVG/1.1/DTD/svg11.dtd">
<svg version="1.1" id="Layer_1" xmlns="http://www.w3.org/2000/svg" xmlns:xlink="http://www.w3.org/1999/xlink" x="0px" y="0px"
	 viewBox="0 0 312 298" enable-background="new 0 0 312 298" xml:space="preserve">
<g>
	<g>
		<path fill-rule="evenodd" clip-rule="evenodd" fill="#ED5825" d="M189.4,0h-78C101.1,0,90,1.2,78.2,3.6
			c-11.9,2.8-23.5,8.8-34.5,17.9C27.5,37.2,19.4,54.7,19.4,73.9c0,15.9,5.7,29.8,17.1,41.8c10.9,12.9,26.7,19.4,47.4,19.7
			c3.9,0,8.1-0.3,12.5-0.8c-0.7,2-1.5,4.3-2.4,6.7c-1,2.3-1.5,5.2-1.5,8.6c0,5.8,1.3,10.7,3.8,14.8c2.2,4.2,4.7,8.2,7.5,11.9
			c-9.1,0.3-20.5,1.4-34.3,3.4c-13.9,2.4-27.2,7.2-39.8,14.5c-11.2,6.7-19,14.5-23.3,23.4c-4.4,8.9-6.6,17-6.6,24.2
			c0,14.9,6.8,27.6,20.4,38.3c13.5,11.4,33.9,17.3,61.2,17.5c32.6-0.5,57.6-8.3,74.9-23.5c16.7-14.6,25-31.4,25-50.4
			c-0.2-13.4-3.3-24.2-9.1-32.5c-6.2-8.1-13.4-15.6-21.6-22.3l-13.2-10.9c-1.9-1.9-3.9-4.1-5.9-6.7c-2.4-2.7-3.6-6-3.6-10.1
			c0-4.2,1.2-7.9,3.5-11.1c2-3.1,4.1-5.8,6.4-8.2c4.1-3.6,7.9-7.1,11.5-10.5c3.3-3.4,6.3-7.2,9.2-11.3c5.9-8.4,9-19.6,9.2-33.6
			c0-7.6-0.9-14.3-2.6-20c-2.1-5.7-4.5-10.7-7.2-14.9c-2.8-4.5-5.7-8.2-8.6-11.3c-3.1-2.9-5.8-5.2-8.3-6.7h24L189.4,0z M146.7,213.5
			c6.5,7.4,9.7,16,9.7,26c0,12.2-4.7,22.2-14.2,30c-9.7,7.9-23.7,12-42.1,12.2c-20.5-0.3-36.6-4.8-48.4-13.7
			c-12.4-8.9-18.6-20.2-18.6-34c0-7,1.4-13,4.3-18c2.5-4.7,5.5-8.7,9.1-11.8c3.7-3.1,7.4-5.4,11-7.1c3.6-1.5,6.4-2.7,8.4-3.4
			c8.4-2.5,16.7-4.4,24.8-5.5c8.2-0.8,13.3-1,15.3-0.8c3.4,0,6.3,0.1,8.7,0.4C129.2,197.9,139.8,206.5,146.7,213.5z M134,98.3
			c-0.9,5.2-3.1,10.3-6.4,15.3c-6.8,7-15.4,10.7-25.7,11.1c-8.1,0-15.3-2.5-21.7-7.5c-6.3-5-11.5-11-15.5-18.2
			c-8.3-15.3-12.4-30-12.4-44.2c-0.3-10.7,2.6-20.4,8.5-29.1c7-8.3,15.8-12.6,26.3-12.8c8,0.3,15,2.6,21.2,7.1
			c6,4.7,10.9,10.8,14.6,18.4c7.9,15.7,11.8,31.2,11.8,46.7C134.8,88.7,134.6,93.1,134,98.3z M311,122v-0.2h-41V80h-24v41.8h-41.3
			v23.3h0.3v0.9h41v41h24v-41h42v-24H311z"/>
	</g>
</g>
</svg>
