<svg xmlns="http://www.w3.org/2000/svg" width="20" height="20" viewBox="0 0 20 20"><path d="M9.1 11.002h1.8v2H20s-.148-4.458-.2-5.854c-.05-1.326-.523-2.146-2-2.146h-3.208l-1.196-2.255c-.33-.624-.444-.745-1.18-.745H7.784c-.736 0-.85.12-1.18.745L5.408 5.002H2.2c-1.477 0-1.945.82-2 2.146S0 13.002 0 13.002h9.1v-2zM7.65 3.917c.23-.432.308-.516.816-.516h3.067c.51 0 .588.085.816.517.085.162.317.6.575 1.084h-5.85c.257-.482.49-.92.575-1.083zm3.25 12.085H9.1v-2H.5s.125 1.798.2 3.322c.03.633.217 1.678 1.8 1.678h15c1.583 0 1.765-1.046 1.8-1.678.087-1.567.2-3.322.2-3.322h-8.6v2z"/></svg>