<svg xmlns="http://www.w3.org/2000/svg" width="20" height="20" viewBox="0 0 20 20"><path d="M16.785 10c0-1.048.645-1.875 1.615-2.443-.176-.584-.406-1.145-.69-1.672-1.09.285-1.972-.142-2.712-.882-.742-.74-.97-1.623-.684-2.71-.527-.286-1.086-.52-1.672-.693-.568.97-1.595 1.616-2.642 1.616S7.927 2.57 7.358 1.6c-.586.174-1.145.407-1.672.69.284 1.09.058 1.972-.683 2.713s-1.623 1.167-2.71.883c-.286.526-.518 1.087-.693 1.67.97.57 1.616 1.396 1.616 2.444 0 1.047-.645 2.074-1.616 2.643.175.585.407 1.145.692 1.672 1.09-.285 1.97-.058 2.71.683s.968 1.622.684 2.71c.527.286 1.087.52 1.672.693.57-.97 1.595-1.615 2.642-1.615s2.075.645 2.643 1.616c.586-.174 1.145-.406 1.672-.69-.285-1.09-.06-1.97.684-2.712.74-.74 1.62-1.167 2.71-.883.285-.527.516-1.087.69-1.672-.97-.57-1.615-1.396-1.615-2.443zM10 13.653c-2.017 0-3.652-1.636-3.652-3.653S7.983 6.347 10 6.347c2.018 0 3.653 1.636 3.653 3.653S12.018 13.653 10 13.653z"/></svg>