<svg xmlns="http://www.w3.org/2000/svg" width="20" height="20" viewBox="0 0 20 20"><path d="M10.26 9.983l.103-.032c-.083-.185-.175-.376-.28-.582-1.88.556-3.68.562-4 .558-.002.024-.003.05-.003.074 0 .945.34 1.854.958 2.567.207-.333 1.298-1.962 3.22-2.584zm2.295-2.954c-.71-.613-1.616-.95-2.555-.95-.283 0-.568.032-.85.094.205.276.833 1.147 1.422 2.223 1.282-.492 1.862-1.203 1.983-1.368zm-4.93 6.083c.688.53 1.51.807 2.375.807.518 0 1.02-.1 1.495-.295-.066-.38-.295-1.54-.822-2.92-2.122.75-2.922 2.16-3.05 2.408zm2.08-4.448C9.097 7.593 8.465 6.71 8.29 6.473c-1.066.52-1.85 1.507-2.112 2.66h.016c.406 0 1.848-.034 3.51-.468zm1.81 1.833c.464 1.29.68 2.366.74 2.71.85-.6 1.433-1.522 1.608-2.543-.174-.052-.8-.222-1.592-.222-.256 0-.512.02-.756.055zM10 .4C4.698.4.4 4.698.4 10s4.298 9.6 9.6 9.6c5.303 0 9.6-4.298 9.6-9.6S15.303.4 10 .4zm0 14.298c-2.59 0-4.698-2.107-4.698-4.698S7.41 5.302 10 5.302c2.592 0 4.7 2.107 4.7 4.698s-2.108 4.698-4.7 4.698zm.922-5.622c.087.178.167.356.242.53.023.057.05.113.072.17.277-.033.572-.05.88-.05.855 0 1.565.125 1.802.172-.02-.85-.322-1.676-.852-2.34-.16.208-.818.964-2.144 1.518z"/></svg>