<svg xmlns="http://www.w3.org/2000/svg" width="20" height="20" viewBox="0 0 20 20"><path d="M10.014 9.95H9.985c-1.19 0-2.24-.303-2.862.268-.372.342-.528.753-.528 1.196 0 1.853 1.484 2.08 3.39 2.08h.028c1.906 0 3.39-.228 3.39-2.08 0-.443-.156-.854-.53-1.196-.617-.57-1.668-.27-2.86-.27zm-1.62 2.53c-.363 0-.657-.407-.657-.91s.294-.908.657-.908.657.407.657.91-.294.908-.656.908zm3.21 0c-.36 0-.655-.407-.655-.91s.293-.908.655-.908c.363 0 .658.407.658.91s-.294.908-.658.908zM10 .4C4.698.4.4 4.698.4 10s4.298 9.6 9.6 9.6c5.3 0 9.6-4.298 9.6-9.6S15.3.4 10 .4zm.875 13.54h-1.75c-.76 0-3.773-.06-3.773-3.69 0-.834.286-1.445.755-1.954-.075-.185-.08-1.234.32-2.236 0 0 .916.1 2.3 1.05.29-.08.78-.12 1.273-.12.49 0 .982.04 1.273.12 1.385-.95 2.3-1.05 2.3-1.05.397 1.003.395 2.052.32 2.236.468.51.755 1.12.755 1.955 0 3.632-3.01 3.69-3.773 3.69z"/></svg>