<svg xmlns="http://www.w3.org/2000/svg" width="20" height="20" viewBox="0 0 20 20"><path d="M9.097 7.285c-.24-.85-.63-1.1-1.238-1.1-.066 0-.132.008-.195.025-.264.075-.472.295-.588.62-.12.33-.127.675-.023 1.067.184.7.682 1.21 1.185 1.21.064 0 .13-.01.193-.027.547-.155.89-.993.664-1.795zM10 .4C4.698.4.4 4.698.4 10s4.298 9.6 9.6 9.6c5.303 0 9.6-4.298 9.6-9.6S15.303.4 10 .4zm-.553 13.722c-.604.293-1.253.324-1.504.324h-.128c-.392 0-2.343-.09-2.343-1.868 0-1.746 2.124-1.882 2.775-1.882h.018c-.375-.502-.297-1.008-.297-1.008-.033.002-.082.004-.14.004-.247 0-.72-.04-1.126-.302-.497-.32-.75-.864-.75-1.62 0-2.13 2.327-2.216 2.35-2.217h2.324v.05c0 .26-.466.31-.785.355-.107.015-.323.037-.385.068.59.314.684.81.684 1.545 0 .838-.33 1.28-.677 1.593-.215.192-.385.345-.385.547 0 .198.232.402.502.64.44.387 1.046.918 1.046 1.81 0 .922-.397 1.582-1.18 1.962zm5.08-4.13H13.01v1.515h-.96V9.99h-1.515v-.96h1.516V7.517h.96v1.516h1.517v.96zm-6.304 1.16c-.052 0-.104 0-.156.005-.444.032-.854.2-1.15.47-.295.265-.444.6-.423.94.044.71.808 1.127 1.734 1.06.913-.066 1.52-.59 1.476-1.302-.043-.67-.624-1.174-1.48-1.174z"/></svg>