<svg xmlns="http://www.w3.org/2000/svg" width="20" height="20" viewBox="0 0 20 20"><path d="M3.302 12.238c.464 1.88 1.054 2.7 3.022 3.562 1.97.86 2.904 1.8 3.676 1.8s1.647-.822 3.616-1.684c1.97-.86 1.444-1.123 1.908-3.002L10 15.6l-6.698-3.362zm16.21-4.902l-8.326-4.662c-.652-.365-1.72-.365-2.37 0L.488 7.336c-.653.365-.653.963 0 1.328l8.324 4.662c.652.365 1.72.365 2.37 0l5.383-3.014-5.836-1.367c-.223.056-.47.087-.73.087-1.05 0-1.903-.507-1.903-1.132S8.95 6.767 10 6.767c.816 0 1.51.307 1.78.736l6.182 2.028 1.55-.866c.65-.365.65-.963 0-1.328zm-2.545 8.836c-.063.383 1.283 1.016 1.41-.11.58-5.07-.415-6.53-.415-6.53l-1.395.78s1.183 1.126.4 5.86z"/></svg>