<svg xmlns="http://www.w3.org/2000/svg" width="20" height="20" viewBox="0 0 20 20"><path d="M10 .4C4.698.4.4 4.698.4 10s4.298 9.6 9.6 9.6 9.6-4.298 9.6-9.6S15.302.4 10 .4zm2.645 12.43c-2.002 0-2.697-.91-3.066-2.042L9.206 9.62c-.277-.85-.5-1.466-1.52-1.466-.705 0-1.625.463-1.625 1.898 0 1.12.77 1.82 1.568 1.82.678 0 1.084-.38 1.296-.57l.354 1.01c-.24.175-.734.518-1.707.518-1.345 0-2.625-.957-2.625-2.73 0-1.844 1.333-2.93 2.706-2.93 1.54 0 2.112.562 2.6 2.078l.38 1.166c.28.853.866 1.47 2.035 1.47.786 0 1.203-.175 1.203-.605 0-.34-.197-.585-.787-.725l-.787-.187c-.962-.233-1.344-.735-1.344-1.53 0-1.27 1.02-1.667 2.06-1.667 1.182 0 1.9.433 1.99 1.482l-1.156.14c-.046-.5-.347-.71-.903-.71-.51 0-.82.232-.82.63 0 .35.15.56.66.676l.74.163c.994.234 1.527.725 1.527 1.67 0 1.167-.974 1.61-2.41 1.61z"/></svg>