<svg xmlns="http://www.w3.org/2000/svg" width="20" height="20" viewBox="0 0 20 20"><path d="M10 .4C4.698.4.4 4.698.4 10s4.298 9.6 9.6 9.6 9.6-4.298 9.6-9.6S15.302.4 10 .4zM7.65 13.98H5.706V7.723H7.65v6.255zm-.984-7.024c-.614 0-1.01-.436-1.01-.973 0-.55.408-.972 1.035-.972s1.012.423 1.024.973c0 .538-.396.973-1.048.973zm8.083 7.023h-1.944V10.51c0-.806-.282-1.355-.985-1.355-.536 0-.855.37-.997.73-.05.126-.064.306-.064.484v3.608H8.813v-4.26c0-.78-.025-1.433-.05-1.995h1.687l.09.87h.04c.255-.41.882-1.01 1.93-1.01 1.28 0 2.24.855 2.24 2.697v3.7z"/></svg>