<svg xmlns="http://www.w3.org/2000/svg" width="20" height="20" viewBox="0 0 20 20"><path d="M7.86 14.694l-.81.804c-.703.695-1.844.696-2.545 0-.337-.335-.522-.778-.522-1.25s.186-.918.522-1.253l2.98-2.957c.617-.613 1.78-1.514 2.626-.674.39.386 1.018.383 1.403-.005s.384-1.017-.005-1.403c-1.44-1.428-3.567-1.164-5.42.674l-2.98 2.958C2.394 12.298 2 13.242 2 14.248s.394 1.947 1.11 2.657c.735.73 1.7 1.095 2.667 1.095s1.934-.364 2.67-1.095l.81-.805c.39-.386.39-1.014.005-1.4-.386-.39-1.014-.39-1.403-.006zM16.89 3.21c-1.545-1.535-3.706-1.618-5.138-.198l-1.01 1c-.388.387-.39 1.014-.005 1.403s1.014.39 1.402.005l1.008-1c.74-.737 1.712-.432 2.346.196.337.334.522.78.522 1.25 0 .474-.186.918-.522 1.252l-3.18 3.154c-1.453 1.442-2.136.766-2.427.477-.39-.387-1.016-.384-1.4.004s-.385 1.017.004 1.402c.668.662 1.43.99 2.23.99.977 0 2.01-.492 2.992-1.467l3.18-3.155C17.605 7.815 18 6.872 18 5.868s-.394-1.95-1.11-2.66z"/></svg>