<svg xmlns="http://www.w3.org/2000/svg" width="20" height="20" viewBox="0 0 20 20"><path d="M19.683 5.024L15.01 2.097c-.208-.13-.467-.13-.674 0L10 4.813 5.664 2.098c-.207-.13-.466-.13-.673 0L.318 5.024C.12 5.147 0 5.37 0 5.61v11.706c0 .246.126.474.332.595s.457.12.66-.008l4.335-2.716 4.336 2.716c.207.13.466.13.674 0l4.336-2.716 4.336 2.716c.102.065.22.098.336.098.11 0 .222-.03.322-.09.205-.12.332-.348.332-.594V5.61c0-.24-.12-.463-.317-.586zm-15.01 8.98L1.308 16.11V5.996L4.673 3.89v10.113zm4.673 2.106L5.98 14.003V3.89l3.366 2.106V16.11zm4.673-2.107l-3.365 2.107V5.996L14.02 3.89v10.113zm4.67 2.107l-3.363-2.107V3.89l3.364 2.106V16.11z"/></svg>