<svg xmlns="http://www.w3.org/2000/svg" width="20" height="20" viewBox="0 0 20 20"><path d="M10 .4C4.698.4.4 4.698.4 10s4.298 9.6 9.6 9.6 9.6-4.298 9.6-9.6S15.302.4 10 .4zm.656 11.876c-.615-.048-.873-.353-1.355-.646-.265 1.392-.588 2.726-1.55 3.422-.295-2.103.437-3.682.776-5.358-.58-.974.07-2.936 1.29-2.453 1.504.596-1.3 3.625.582 4.004 1.966.395 2.768-3.41 1.55-4.648-1.762-1.787-5.127-.04-4.713 2.518.1.626.746.815.258 1.68-1.127-.25-1.464-1.14-1.42-2.325.07-1.942 1.743-3.3 3.42-3.49 2.124-.236 4.116.78 4.392 2.777.31 2.255-.96 4.695-3.23 4.52z"/></svg>