<svg xmlns="http://www.w3.org/2000/svg" width="20" height="20" viewBox="0 0 20 20"><path d="M12.164 9.853c-.23-.154-.514-.287-.84-.396-.324-.106-.69-.205-1.087-.292-.314-.075-.543-.133-.68-.172-.133-.038-.266-.09-.395-.158-.125-.064-.224-.14-.293-.23-.067-.082-.1-.177-.1-.293 0-.188.1-.347.306-.485.213-.144.5-.216.852-.216.38 0 .655.066.82.195.17.134.32.322.44.562.108.188.202.318.296.402.098.09.24.135.422.135.2 0 .37-.073.506-.217.133-.144.2-.308.2-.488 0-.188-.052-.382-.153-.577-.1-.192-.263-.38-.478-.553-.215-.172-.488-.312-.812-.416-.322-.104-.708-.155-1.147-.155-.55 0-1.034.077-1.442.232-.414.158-.735.387-.955.682-.22.297-.333.642-.333 1.024 0 .4.107.742.318 1.013.208.27.492.483.844.638.345.15.778.284 1.288.396.375.08.68.157.902.23.214.067.392.168.524.297.127.124.19.28.19.48 0 .252-.12.458-.365.63-.25.177-.583.266-.99.266-.295 0-.536-.044-.714-.13-.178-.087-.317-.197-.413-.328-.1-.137-.195-.31-.282-.516-.078-.188-.175-.334-.288-.433-.12-.104-.264-.156-.433-.156-.206 0-.378.066-.513.196-.135.132-.204.292-.204.478 0 .296.106.604.314.913.207.31.48.557.81.74.462.252 1.054.38 1.76.38.587 0 1.103-.094 1.535-.277.436-.187.77-.45.998-.78.23-.332.344-.712.344-1.128 0-.35-.066-.647-.2-.89-.13-.242-.317-.445-.553-.602zM10 .4C4.698.4.4 4.698.4 10s4.298 9.6 9.6 9.6c5.303 0 9.6-4.298 9.6-9.6S15.303.4 10 .4zm2.3 14.976c-.485 0-.944-.126-1.346-.348-.292.056-.592.085-.9.085-2.714 0-4.915-2.265-4.915-5.057 0-.35.033-.688.1-1.017-.25-.436-.393-.942-.393-1.483 0-1.62 1.276-2.933 2.85-2.933.558 0 1.077.165 1.517.45.272-.05.553-.074.84-.074 2.714 0 4.915 2.265 4.915 5.057 0 .372-.04.735-.114 1.085.19.393.295.834.295 1.303 0 1.618-1.275 2.93-2.85 2.93z"/></svg>