<svg xmlns="http://www.w3.org/2000/svg" width="20" height="20" viewBox="0 0 20 20"><path d="M10 .4C4.698.4.4 4.698.4 10c0 2.424.898 4.638 2.38 6.326 1.502-1.502 3.56-2.345 5.92-2.27 3.012.1 5.39 1.525 6.753 3.845 2.505-1.73 4.147-4.623 4.147-7.9 0-5.302-4.298-9.6-9.6-9.6zm4.693 13.022c-.17.28-.53.366-.81.197-2.224-1.36-5.02-1.666-8.314-.914-.317.073-.635-.125-.706-.444-.073-.315.124-.633.442-.705 3.605-.824 6.697-.468 9.19 1.054.28.17.368.534.197.812zm1.16-2.723c-.214.347-.67.455-1.015.24-2.544-1.562-6.422-2.015-9.43-1.102-.392.118-.804-.103-.92-.49-.12-.392.1-.804.49-.92 3.437-1.046 7.71-.54 10.632 1.255.347.216.456.668.242 1.016zm.098-2.822C12.9 6.065 7.87 5.9 4.96 6.783c-.468.143-.962-.12-1.104-.59-.14-.467.123-.963.59-1.103 3.343-1.015 8.9-.82 12.41 1.266.42.25.56.793.31 1.214-.25.42-.792.557-1.213.308zm-7.31 9.05c-1.352-.043-2.476.483-3.297 1.468C6.723 19.163 8.31 19.6 10 19.6c.815 0 1.606-.102 2.362-.293-.724-1.487-1.987-2.323-3.723-2.38z"/></svg>