<svg xmlns="http://www.w3.org/2000/svg" width="20" height="20" viewBox="0 0 20 20"><path d="M10 .4C4.698.4.4 4.698.4 10s4.298 9.6 9.6 9.6 9.6-4.298 9.6-9.6S15.302.4 10 .4zm2.576 13.742c-.393.187-.748.318-1.064.394-.318.075-.664.113-1.033.113-.42 0-.792-.055-1.115-.162-.322-.107-.598-.26-.826-.46s-.387-.41-.475-.633-.132-.548-.132-.973v-3.26H6.918V7.845c.36-.12.67-.29.927-.51s.464-.488.62-.8c.155-.31.263-.705.32-1.184h1.307v2.35h2.18v1.46h-2.18v2.384c0 .54.028.885.085 1.038s.16.275.314.366c.205.123.438.186.7.186.464 0 .927-.153 1.386-.46v1.466z"/></svg>