<svg xmlns="http://www.w3.org/2000/svg" width="20" height="20" viewBox="0 0 20 20"><path d="M10 .4C4.698.4.4 4.698.4 10s4.298 9.6 9.6 9.6 9.6-4.298 9.6-9.6S15.302.4 10 .4zm3.904 7.865c.004.08.006.163.006.245 0 2.498-1.902 5.38-5.38 5.38-1.067 0-2.062-.313-2.898-.85.148.017.3.025.45.025.887 0 1.702-.302 2.35-.81-.827-.015-1.526-.562-1.767-1.312.115.022.234.034.355.034.173 0 .34-.023.498-.066C6.654 10.738 6 9.974 6 9.058c0-.008 0-.016.002-.023.255.14.547.226.856.236-.506-.34-.84-.917-.84-1.574 0-.347.093-.672.256-.95C7.206 7.89 8.6 8.642 10.17 8.72c-.03-.137-.048-.28-.048-.43 0-1.044.847-1.89 1.89-1.89.545 0 1.036.228 1.38.596.432-.084.837-.24 1.202-.458-.142.44-.44.812-.832 1.046.383-.046.747-.147 1.086-.298-.253.38-.575.712-.944.98z"/></svg>