<svg xmlns="http://www.w3.org/2000/svg" width="20" height="20" viewBox="0 0 20 20"><path d="M20 18.8s-.04-3.787-.27-4.18c-.346-.584-1.147-.985-2.635-1.607-1.483-.62-1.958-1.144-1.958-2.263 0-.673.453-.453.652-1.684.08-.51.48-.01.558-1.174 0-.465-.218-.58-.218-.58s.11-.69.154-1.218c.054-.66-.333-2.363-2.392-2.363s-2.444 1.705-2.39 2.364c.042.53.152 1.217.152 1.217s-.218.117-.218.582c.077 1.166.477.664.56 1.174.198 1.23.65 1.01.65 1.684 0 .76-.22 1.247-.826 1.674 3.24 1.622 3.675 1.953 3.675 3.403V18.8H20zm-9.776-5.225c-1.98-.826-2.61-1.524-2.61-3.017 0-.896.604-.604.87-2.246.108-.68.643-.01.744-1.565 0-.62-.29-.774-.29-.774s.147-.917.205-1.623c.072-.878-.444-3.15-3.19-3.15s-3.26 2.27-3.187 3.15c.058.706.205 1.623.205 1.623s-.29.154-.29.774c.104 1.555.637.885.747 1.565.265 1.642.87 1.35.87 2.246 0 1.493-.634 2.19-2.61 3.017-.604.252-1.687.643-1.687 1.58V18.8h13.894v-2.73c0-.858-1.687-1.665-3.67-2.495z"/></svg>