<svg xmlns="http://www.w3.org/2000/svg" width="20" height="20" viewBox="0 0 20 20"><path d="M14.82 14.448c-2.465-.898-3.253-1.656-3.253-3.28 0-.973.753-.655 1.083-2.44.137-.74.802-.01.93-1.7 0-.673-.363-.84-.363-.84s.185-.998.257-1.764C13.562 3.468 12.922 1 9.5 1 6.08 1 5.437 3.468 5.527 4.424c.072.766.257 1.763.257 1.763s-.364.167-.364.84c.127 1.69.792.962.93 1.702.33 1.783 1.083 1.465 1.083 2.44 0 1.622-.788 2.38-3.253 3.278-2.474.9-4.08 1.82-4.08 2.446V19h18.8v-2.106s-1.607-1.545-4.08-2.446z"/></svg>